<?xml version="1.0" encoding="utf-8"?>
<!-- Generator: Adobe Illustrator 28.4.1, SVG Export Plug-In . SVG Version: 6.00 Build 0)  -->
<svg version="1.1" id="Ebene_1" xmlns="http://www.w3.org/2000/svg" xmlns:xlink="http://www.w3.org/1999/xlink" x="0px" y="0px"
	 viewBox="0 0 692 158.3" style="enable-background:new 0 0 692 158.3;" xml:space="preserve">
<style type="text/css">
	.st0{fill:url(#SVGID_1_);}
	.st1{fill:url(#SVGID_00000165214656265160117180000001543451744389409725_);}
	.st2{fill:url(#SVGID_00000135670166852846196150000011267251387898997661_);}
	.st3{fill:url(#SVGID_00000123403487987050577090000010300460019403462279_);}
	.st4{fill:url(#SVGID_00000114765042264188490370000011399022468143171255_);}
	.st5{fill:url(#SVGID_00000173118990011881654760000013150506913860354447_);}
	.st6{fill:url(#SVGID_00000001644432446524159980000005355724469282516385_);}
	.st7{fill:url(#SVGID_00000118394589081944078750000003011501395880270770_);}
	.st8{fill:url(#SVGID_00000159467549420297889970000010543147867420158858_);}
	.st9{fill:url(#SVGID_00000176008952813038870270000010870758759955209365_);}
	.st10{fill:url(#SVGID_00000131366219425325150130000003393449773014082214_);}
	.st11{fill:url(#SVGID_00000179611994426327158970000009118873454871536297_);}
</style>
<g>
	
		<linearGradient id="SVGID_1_" gradientUnits="userSpaceOnUse" x1="41.4125" y1="29.75" x2="75.0275" y2="29.75" gradientTransform="matrix(1 0 0 -1 0 124)">
		<stop  offset="0" style="stop-color:#52B898"/>
		<stop  offset="1" style="stop-color:#20685F"/>
	</linearGradient>
	<path class="st0" d="M55.6,110.6L42.1,96c-0.9-1-0.9-2.4,0-3.4l13.5-14.6c1.3-1.4,3.9-1.4,5.2,0l13.5,14.6c0.9,1,0.9,2.4,0,3.4
		l-13.5,14.6C59.5,112,56.9,112,55.6,110.6z"/>
	
		<linearGradient id="SVGID_00000080182305727315304740000007158887761252196490_" gradientUnits="userSpaceOnUse" x1="5.825" y1="50.9399" x2="159.175" y2="50.9399" gradientTransform="matrix(1 0 0 -1 0 124)">
		<stop  offset="0" style="stop-color:#52B898"/>
		<stop  offset="1" style="stop-color:#20685F"/>
	</linearGradient>
	<path style="fill:url(#SVGID_00000080182305727315304740000007158887761252196490_);" d="M77.3,15.4L7.2,91.1c-1.9,2-1.9,4.8,0,6.9
		l30.2,32.7c2.6,2.8,7.7,2.8,10.4,0l3.4-3.7c1.9-2,1.9-4.8,0-6.9L30.8,97.9c-1.9-2-1.9-4.8,0-6.9l46.5-50.2c2.6-2.8,7.7-2.8,10.4,0
		l46.5,50.2c1.9,2,1.9,4.8,0,6.9l-20.6,22.2c-1.9,2-1.9,4.8,0,6.9l3.4,3.7c2.6,2.8,7.7,2.8,10.4,0l30.4-32.8c1.9-2,1.9-4.8,0-6.9
		L87.7,15.4C85.1,12.6,80,12.6,77.3,15.4L77.3,15.4z"/>
	
		<linearGradient id="SVGID_00000013900117213195517300000006420159770443460744_" gradientUnits="userSpaceOnUse" x1="89.2725" y1="29.75" x2="122.8875" y2="29.75" gradientTransform="matrix(1 0 0 -1 0 124)">
		<stop  offset="0" style="stop-color:#52B898"/>
		<stop  offset="1" style="stop-color:#20685F"/>
	</linearGradient>
	<path style="fill:url(#SVGID_00000013900117213195517300000006420159770443460744_);" d="M103.5,110.6L90,96c-0.9-1-0.9-2.4,0-3.4
		l13.5-14.6c1.3-1.4,3.9-1.4,5.2,0l13.5,14.6c0.9,1,0.9,2.4,0,3.4l-13.5,14.6C107.3,112,104.8,112,103.5,110.6z"/>
	
		<linearGradient id="SVGID_00000152959494340096573520000013253358471950949016_" gradientUnits="userSpaceOnUse" x1="65.4025" y1="53.33" x2="99.0175" y2="53.33" gradientTransform="matrix(1 0 0 -1 0 124)">
		<stop  offset="0" style="stop-color:#52B898"/>
		<stop  offset="1" style="stop-color:#20685F"/>
	</linearGradient>
	<path style="fill:url(#SVGID_00000152959494340096573520000013253358471950949016_);" d="M79.6,87L66.1,72.4c-0.9-1-0.9-2.4,0-3.4
		l13.5-14.6c1.3-1.4,3.9-1.4,5.2,0L98.3,69c0.9,1,0.9,2.4,0,3.4L84.8,87C83.5,88.4,80.9,88.4,79.6,87z"/>
</g>
<g>
	<g>
		
			<linearGradient id="SVGID_00000032650846069211678620000009215885875118163091_" gradientUnits="userSpaceOnUse" x1="369.15" y1="53.35" x2="377.85" y2="53.35" gradientTransform="matrix(1 0 0 -1 0 124)">
			<stop  offset="0" style="stop-color:#52B898"/>
			<stop  offset="1" style="stop-color:#20685F"/>
		</linearGradient>
		<path style="fill:url(#SVGID_00000032650846069211678620000009215885875118163091_);" d="M369.1,82.6c0-9.1,3.2-17.4,8.7-23.9
			v23.9H369.1z"/>
		
			<linearGradient id="SVGID_00000131366898235297940470000002885022738784541847_" gradientUnits="userSpaceOnUse" x1="505.973" y1="102.469" x2="524.6329" y2="102.469" gradientTransform="matrix(1.1196 -2.853654e-02 -2.369552e-02 -0.9297 -178.3592 165.8036)">
			<stop  offset="0" style="stop-color:#52B898"/>
			<stop  offset="1" style="stop-color:#20685F"/>
		</linearGradient>
		<path style="fill:url(#SVGID_00000131366898235297940470000002885022738784541847_);" d="M407.8,55.4c0,1.2-0.5,2-1.5,2.1
			c-5.4,0.5-11.4,2.8-16.4,6.4c-1.1,0.8-2.9,0.2-2.9-1.1l-0.2-9.7c0-0.5,0.3-1,0.9-1.3c5.4-2.6,11.5-4.3,18.1-4.7
			c1-0.1,1.8,0.6,1.8,1.4C407.6,48.7,407.8,52.8,407.8,55.4L407.8,55.4z"/>
	</g>
	
		<linearGradient id="SVGID_00000093882846968343574540000010601185387995551402_" gradientUnits="userSpaceOnUse" x1="366.39" y1="35.87" x2="378.35" y2="35.87" gradientTransform="matrix(1 0 0 -1 0 124)">
		<stop  offset="0" style="stop-color:#52B898"/>
		<stop  offset="1" style="stop-color:#20685F"/>
	</linearGradient>
	<path style="fill:url(#SVGID_00000093882846968343574540000010601185387995551402_);" d="M366.4,49.7c0-1.5,0.7-2.3,2.2-2.3h7.6
		c1.5,0,2.2,0.8,2.2,2.3v76.8c0,1.5-0.7,2.3-2.2,2.3h-7.6c-1.5,0-2.2-0.8-2.2-2.3V49.7z"/>
</g>
<linearGradient id="SVGID_00000141435524760077856390000013462600394507781769_" gradientUnits="userSpaceOnUse" x1="181.56" y1="35.92" x2="264.65" y2="35.92" gradientTransform="matrix(1 0 0 -1 0 124)">
	<stop  offset="0" style="stop-color:#52B898"/>
	<stop  offset="1" style="stop-color:#20685F"/>
</linearGradient>
<path style="fill:url(#SVGID_00000141435524760077856390000013462600394507781769_);" d="M262.3,47.4h-7c-1.5,0-2.2,0.8-2.2,2.3
	l-0.3,13.6v25.1c0,4.4-0.7,8.5-1.9,12.1c-4.1,11.8-14.3,19.1-27.6,19.1c-17.5,0-30.1-12.6-30.1-31.6s12.6-31.6,30.1-31.6
	c6.6,0,12.5,1.9,17.2,5.2c1,0.7,2.5,0,2.5-1.3v-7.7c0-0.5-0.2-1-0.7-1.3c-5.5-3.8-12.5-6-20.6-6c-23.8,0-40.1,18.5-40.1,42.7
	s16.3,42.7,40.1,42.7c14.6,0,25.3-6.6,31.2-17.6l0.3,13.3c0,1.5,0.7,2.3,2.2,2.3h7.1c1.2,0,2.2-1,2.2-2.2V49.7
	C264.6,48.4,263.6,47.4,262.3,47.4L262.3,47.4z"/>
<linearGradient id="SVGID_00000139289496002075200110000000048606393695750844_" gradientUnits="userSpaceOnUse" x1="275.91" y1="53.63" x2="358.9999" y2="53.63" gradientTransform="matrix(1 0 0 -1 0 124)">
	<stop  offset="0" style="stop-color:#52B898"/>
	<stop  offset="1" style="stop-color:#20685F"/>
</linearGradient>
<path style="fill:url(#SVGID_00000139289496002075200110000000048606393695750844_);" d="M318.8,45.4c-7.9,0-14.8,2.2-20.4,5.9
	c-0.4,0.3-0.7,0.8-0.7,1.3v7.8c0,1.3,1.4,2,2.5,1.3c4.7-3.3,10.5-5.2,17-5.2c17.6,0,30.2,12.8,30.2,31.6s-12.6,31.6-30.2,31.6
	c-13.2,0-23.4-7.3-27.5-19.1c-1.3-3.6-1.9-7.7-1.9-12.1V11.2c-0.3-0.8-0.9-1.2-2-1.2h-7.6c-1.2,0-2.2,1-2.2,2.2v114.3
	c0,1.3,1,2.3,2.3,2.3h6.8c1.5,0,2.2-0.8,2.2-2.3l0.3-13.3c6,11,16.8,17.6,31.2,17.6c23.9,0,40.2-18.3,40.2-42.7
	S342.7,45.4,318.8,45.4L318.8,45.4z"/>
<linearGradient id="SVGID_00000037666617630136780620000001953842935698326697_" gradientUnits="userSpaceOnUse" x1="404.05" y1="35.93" x2="487.29" y2="35.93" gradientTransform="matrix(1 0 0 -1 0 124)">
	<stop  offset="0" style="stop-color:#52B898"/>
	<stop  offset="1" style="stop-color:#20685F"/>
</linearGradient>
<path style="fill:url(#SVGID_00000037666617630136780620000001953842935698326697_);" d="M445.8,45.4c-23.8,0-41.7,18.5-41.7,42.7
	s18,42.7,41.7,42.7c23.8,0,41.5-18.5,41.5-42.7S469.4,45.4,445.8,45.4z M445.8,119.6c-17.3,0-30.1-13.1-30.1-31.6
	s12.8-31.6,30.1-31.6c17.3,0,29.9,13.1,29.9,31.6S462.9,119.6,445.8,119.6z"/>
<linearGradient id="SVGID_00000011737142923335142170000005009552092683770289_" gradientUnits="userSpaceOnUse" x1="496.3701" y1="35.93" x2="579.45" y2="35.93" gradientTransform="matrix(1 0 0 -1 0 124)">
	<stop  offset="0" style="stop-color:#52B898"/>
	<stop  offset="1" style="stop-color:#20685F"/>
</linearGradient>
<path style="fill:url(#SVGID_00000011737142923335142170000005009552092683770289_);" d="M570.1,47.4c-1.5,0-2.2,0.8-2.2,2.3
	l-0.3,13.6v25.1c0,4.4-0.7,8.5-1.9,12.1c-4.1,11.8-14.3,19.1-27.6,19.1c-17.4,0-30.1-12.6-30.1-31.6s12.6-31.6,30.1-31.6
	c6.6,0,12.5,1.9,17.2,5.2c1,0.7,2.5,0,2.5-1.3v-7.7c0-0.5-0.2-1-0.7-1.3c-5.5-3.8-12.4-6-20.6-6c-23.8,0-40,18.5-40,42.7
	s16.3,42.7,40,42.7c14.6,0,25.3-6.6,31.2-17.6l0.3,13.3c0,1.5,0.7,2.3,2.2,2.3h7.2c1.2,0,2.2-1,2.2-2.2V47.4H570.1z"/>
<linearGradient id="SVGID_00000133503779937359316250000005712468946421335433_" gradientUnits="userSpaceOnUse" x1="586.42" y1="53.645" x2="669.4999" y2="53.645" gradientTransform="matrix(1 0 0 -1 0 124)">
	<stop  offset="0" style="stop-color:#52B898"/>
	<stop  offset="1" style="stop-color:#20685F"/>
</linearGradient>
<path style="fill:url(#SVGID_00000133503779937359316250000005712468946421335433_);" d="M667.2,10h-7.5c-1.1,0-1.7,0.4-2,1.2v77.2
	c0,4.4-0.7,8.5-1.9,12.1c-4.1,11.8-14.3,19.1-27.6,19.1c-17.5,0-30.1-12.6-30.1-31.6s12.6-31.6,30.1-31.6c6.6,0,12.5,1.9,17.2,5.2
	c1,0.7,2.5,0,2.5-1.3v-7.8c0-0.5-0.2-1-0.7-1.3c-5.6-3.8-12.5-6-20.6-6c-23.8,0-40,18.5-40,42.7s16.3,42.7,40,42.7
	c14.6,0,25.3-6.6,31.2-17.6l0.3,13.3c0,1.5,0.7,2.3,2.2,2.3h7c1.3,0,2.3-1,2.3-2.3V12.3C669.5,11,668.5,9.9,667.2,10L667.2,10z"/>
</svg>

