<svg width="44" height="36" viewBox="0 0 44 36" fill="none" xmlns="http://www.w3.org/2000/svg">
    <path
        d="M14.3804 28.9117L10.6042 24.8485C10.479 24.7211 10.4089 24.5498 10.4089 24.3713C10.4089 24.1928 10.479 24.0214 10.6042 23.8941L14.3804 19.8196C14.5728 19.6291 14.8326 19.5222 15.1033 19.5222C15.3741 19.5222 15.6339 19.6291 15.8262 19.8196L19.5997 23.8941C19.7248 24.0214 19.7949 24.1928 19.7949 24.3713C19.7949 24.5498 19.7248 24.7211 19.5997 24.8485L15.8262 28.9229C15.7306 29.0172 15.6173 29.0917 15.4929 29.1422C15.3685 29.1926 15.2353 29.2181 15.101 29.217C14.9667 29.216 14.834 29.1885 14.7103 29.1361C14.5867 29.0837 14.4746 29.0075 14.3804 28.9117Z"
        fill="url(#paint0_linear_221_6126)" />
    <path
        d="M20.4315 2.35809L0.869111 23.4753C0.618037 23.7301 0.477295 24.0734 0.477295 24.4311C0.477295 24.7888 0.618037 25.1321 0.869111 25.3869L9.30923 34.5013C9.69438 34.8826 10.2144 35.0964 10.7564 35.0964C11.2983 35.0964 11.8184 34.8826 12.2035 34.5013L13.1609 33.4688C13.4106 33.2133 13.5504 32.8702 13.5504 32.513C13.5504 32.1557 13.4106 31.8127 13.1609 31.5572L7.44481 25.3897C7.19507 25.1342 7.05524 24.7912 7.05524 24.4339C7.05524 24.0767 7.19507 23.7336 7.44481 23.4781L20.4315 9.46321C20.8159 9.08147 21.3356 8.86723 21.8773 8.86723C22.419 8.86723 22.9387 9.08147 23.3231 9.46321L36.3098 23.4781C36.5595 23.7336 36.6994 24.0767 36.6994 24.4339C36.6994 24.7912 36.5595 25.1342 36.3098 25.3897L30.563 31.5934C30.312 31.8482 30.1712 32.1916 30.1712 32.5493C30.1712 32.9069 30.312 33.2503 30.563 33.5051L31.5204 34.5376C31.9047 34.9194 32.4244 35.1336 32.9661 35.1336C33.5078 35.1336 34.0276 34.9194 34.4119 34.5376L42.8883 25.3897C43.138 25.1342 43.2779 24.7912 43.2779 24.4339C43.2779 24.0767 43.138 23.7336 42.8883 23.4781L23.3231 2.36088C22.9388 1.97945 22.4194 1.76517 21.8779 1.76465C21.3364 1.76413 20.8166 1.97741 20.4315 2.35809Z"
        fill="url(#paint1_linear_221_6126)" />
    <path
        d="M27.7384 28.9117L23.9733 24.8485C23.8482 24.7211 23.7781 24.5498 23.7781 24.3713C23.7781 24.1928 23.8482 24.0214 23.9733 23.8941L27.7496 19.8196C27.9419 19.6291 28.2017 19.5222 28.4725 19.5222C28.7432 19.5222 29.003 19.6291 29.1953 19.8196L32.9688 23.8941C33.0939 24.0214 33.1641 24.1928 33.1641 24.3713C33.1641 24.5498 33.0939 24.7211 32.9688 24.8485L29.1953 28.9229C29.0995 29.0189 28.9856 29.0948 28.8601 29.1463C28.7346 29.1977 28.6002 29.2237 28.4645 29.2227C28.3289 29.2216 28.1949 29.1936 28.0702 29.1402C27.9455 29.0868 27.8327 29.0092 27.7384 28.9117Z"
        fill="url(#paint2_linear_221_6126)" />
    <path
        d="M21.0762 22.3367L17.3 18.2623C17.1748 18.135 17.1047 17.9636 17.1047 17.7851C17.1047 17.6066 17.1748 17.4352 17.3 17.3079L21.0762 13.2335C21.2686 13.0429 21.5284 12.936 21.7991 12.936C22.0699 12.936 22.3297 13.0429 22.522 13.2335L26.2955 17.3135C26.4206 17.4408 26.4907 17.6122 26.4907 17.7907C26.4907 17.9692 26.4206 18.1405 26.2955 18.2679L22.522 22.3367C22.3297 22.5272 22.0699 22.6341 21.7991 22.6341C21.5284 22.6341 21.2686 22.5272 21.0762 22.3367Z"
        fill="url(#paint3_linear_221_6126)" />

    <defs>
        <linearGradient id="paint0_linear_221_6126" x1="10.4116" y1="24.3601" x2="19.7951" y2="24.3601"
            gradientUnits="userSpaceOnUse">
            <stop stop-color="#52B898" />
            <stop offset="1" stop-color="#20685F" />
        </linearGradient>
        <linearGradient id="paint1_linear_221_6126" x1="0.478363" y1="18.4465" x2="43.2762" y2="18.4465"
            gradientUnits="userSpaceOnUse">
            <stop stop-color="#52B898" />
            <stop offset="1" stop-color="#20685F" />
        </linearGradient>
        <linearGradient id="paint2_linear_221_6126" x1="23.7696" y1="24.3601" x2="33.153" y2="24.3601"
            gradientUnits="userSpaceOnUse">
            <stop stop-color="#52B898" />
            <stop offset="1" stop-color="#20685F" />
        </linearGradient>
        <linearGradient id="paint3_linear_221_6126" x1="17.1074" y1="17.7795" x2="26.4909" y2="17.7795"
            gradientUnits="userSpaceOnUse">
            <stop stop-color="#52B898" />
            <stop offset="1" stop-color="#20685F" />
        </linearGradient>
    </defs>
</svg>