<svg width="212" height="54" viewBox="0 0 212 54" fill="none" xmlns="http://www.w3.org/2000/svg">
<path d="M207.286 25.8513C206.065 25.1916 204.784 24.6394 203.46 24.2093C202.856 24.0236 202.223 23.8526 201.556 23.7011C200.968 23.5741 200.408 23.3542 199.883 23.0561C199.422 22.7824 199.152 22.2742 199.192 21.7366C199.162 21.1942 199.344 20.6664 199.702 20.2559C200.085 19.8699 200.565 19.5962 201.095 19.4691C201.718 19.3128 202.356 19.2492 202.999 19.2834C203.533 19.3128 204.063 19.4398 204.554 19.6499C205.034 19.8454 205.481 20.1093 205.878 20.4367C206.241 20.7153 206.55 21.0622 206.786 21.4532L211.265 18.8192C210.367 17.4313 209.096 16.3171 207.6 15.6085C206.03 14.8267 204.299 14.4308 202.542 14.4504C201.076 14.4406 199.628 14.7485 198.294 15.3544C197.028 15.9164 195.929 16.8009 195.115 17.92C194.296 19.0733 193.874 20.4612 193.908 21.8734C193.874 23.1538 194.276 24.4097 195.046 25.4311C195.866 26.4426 196.906 27.2538 198.088 27.8158C199.393 28.4413 200.776 28.9007 202.199 29.1792C202.753 29.3161 203.327 29.4676 203.916 29.6386C204.46 29.7608 204.966 30.0051 205.402 30.3521C205.81 30.6648 206.03 31.1584 206.006 31.6715C206.025 32.1602 205.839 32.6391 205.496 32.991C205.137 33.3526 204.686 33.6165 204.196 33.7582C203.651 33.9146 203.092 33.9928 202.523 33.9879C201.865 33.9928 201.213 33.8755 200.6 33.6409C200.065 33.4308 199.565 33.1425 199.113 32.7857C198.76 32.5023 198.451 32.17 198.206 31.7888L193.427 33.8217C193.894 34.8089 194.575 35.6787 195.419 36.3678C196.307 37.091 197.313 37.6628 198.392 38.0586C199.52 38.4544 200.698 38.6988 201.895 38.7721C203.435 38.904 204.99 38.6646 206.418 38.0781C207.777 37.5406 208.974 36.661 209.896 35.5321C210.789 34.4179 211.265 33.0301 211.24 31.6031C211.299 30.3912 210.931 29.1988 210.195 28.2312C209.41 27.2392 208.419 26.428 207.296 25.8464L207.286 25.8513Z" fill="white"/>
<path d="M178.163 14.2841C171.359 14.2841 165.849 19.7867 165.854 26.5647C165.854 33.3427 171.378 38.8306 178.182 38.8258C182.759 38.8258 186.954 36.2944 189.083 32.2579L183.49 30.958C181.042 33.8852 176.676 34.2859 173.738 31.8474C172.786 31.0606 172.065 30.0295 171.648 28.8713H190.27C190.417 28.1041 190.491 27.3271 190.491 26.5501C190.491 19.772 184.967 14.2842 178.163 14.289V14.2841ZM171.545 24.4976C172.222 22.3327 173.924 20.637 176.098 19.9626C179.747 18.8289 183.633 20.8618 184.766 24.4976H171.54H171.545Z" fill="white"/>
<path d="M161.305 6.43593H156.065V38.8062H161.305V6.43593Z" fill="white"/>
<path d="M146.622 16.6935C142.437 13.8005 136.889 13.8005 132.704 16.6935V6.43117H127.465V38.821H132.704V36.6513C138.238 40.4776 145.837 39.1142 149.678 33.6019C153.519 28.0896 152.151 20.5199 146.617 16.6935H146.622ZM139.666 33.6166C135.922 33.6556 132.837 30.7089 132.704 26.9851V26.3596C132.881 22.5284 136.138 19.5669 139.984 19.7429C143.831 19.9188 146.803 23.1636 146.627 26.9949C146.455 30.704 143.389 33.6214 139.666 33.6214V33.6166Z" fill="white"/>
<path d="M116.452 16.6885C110.919 12.8621 103.32 14.2255 99.4785 19.7379C95.6374 25.2502 97.0061 32.8199 102.54 36.6463C106.724 39.5392 112.273 39.5392 116.457 36.6463V38.816H121.697V14.5187H116.457V16.6885H116.452ZM116.452 26.9215C116.32 30.5622 113.391 33.4796 109.736 33.6115C105.89 33.7484 102.657 30.7527 102.52 26.9215C102.383 23.0902 105.39 19.8698 109.236 19.733C113.082 19.5961 116.315 22.5918 116.452 26.423V26.9215Z" fill="white"/>
<path d="M92.147 31.9403C89.2232 35.1314 84.2586 35.3562 81.0552 32.4485C77.8517 29.536 77.6261 24.5905 80.545 21.3994C83.4541 18.223 88.3941 17.9835 91.5976 20.857L95.7086 17.2749C90.5036 12.1291 82.1001 12.1584 76.9344 17.3434C71.7686 22.5283 71.7981 30.8994 77.003 36.0452C82.208 41.191 90.6115 41.1617 95.7773 35.9817C95.9343 35.8253 96.0863 35.664 96.2335 35.4979L92.1372 31.9305V31.9403H92.147Z" fill="white"/>
<path d="M42.0869 27.9819L30.7252 47.5488C28.7335 50.9793 25.0542 53.0904 21.0756 53.0904C16.739 53.0904 12.7359 50.7838 10.5725 47.0405L1.12403 30.7186C-0.377127 28.1285 -0.372222 24.9374 1.12403 22.3523L12.7751 2.27726C13.5944 0.869854 15.1005 0 16.7341 0H25.0002L10.6902 24.6638C9.95434 25.9344 9.95434 27.4981 10.6902 28.7638L17.9262 41.2301C19.4077 43.781 23.1066 43.7859 24.593 41.2301L37.0487 19.7916C37.4412 19.1172 38.4174 19.1172 38.805 19.7916L42.082 25.4408C42.5382 26.2227 42.5382 27.1903 42.082 27.9722L42.0869 27.9819ZM37.9563 0.0146603C34.0366 0.0146603 30.4112 2.09645 28.4489 5.47813L16.8518 25.4506C16.3956 26.2325 16.3956 27.2 16.8518 27.9819L20.3888 34.0709C20.7813 34.7453 21.7526 34.7453 22.1451 34.0709L34.5958 12.6373C36.0774 10.0815 39.7812 10.0864 41.2627 12.6373L48.2289 24.6638C48.9647 25.9295 48.9647 27.4932 48.2289 28.7589L34.12 53.0904H42.1997C43.8333 53.0953 45.3443 52.2303 46.1586 50.818L57.8098 30.743C59.3109 28.153 59.3158 24.9668 57.8098 22.3768L48.3172 5.97658C46.1783 2.28703 42.2292 0.00977363 37.9514 0.00977363L37.9563 0.0146603Z" fill="url(#paint0_linear_1124_12)"/>
<defs>
<linearGradient id="paint0_linear_1124_12" x1="15.022" y1="51.4778" x2="43.7594" y2="1.51164" gradientUnits="userSpaceOnUse">
<stop stop-color="#911BFA"/>
<stop offset="0.26" stop-color="#585FF7"/>
<stop offset="0.51" stop-color="#2997F5"/>
<stop offset="0.69" stop-color="#0CBAF4"/>
<stop offset="0.78" stop-color="#01C8F4"/>
</linearGradient>
</defs>
</svg>
