<svg width="60" height="60" viewBox="0 0 60 60" fill="none" xmlns="http://www.w3.org/2000/svg">
<path fill-rule="evenodd" clip-rule="evenodd" d="M54.4369 5.75653L54.4603 0.193441L5.77988 0L5.75653 5.56309L0.193441 5.53974L0 54.2201L5.56309 54.2435L5.53974 59.8066L54.2201 60L54.2435 54.4369L59.8066 54.4603L60 5.77988L54.4369 5.75653Z" fill="white"/>
<path fill-rule="evenodd" clip-rule="evenodd" d="M45.3752 28.9128L34.2123 28.8694L34.2357 23.3063L39.8154 23.3297L39.8321 19.2941L28.6526 19.2507C25.731 19.3074 23.5364 20.1179 22.2123 21.2952C20.5014 22.7994 19.1373 25.4375 18.9038 27.3486C18.8138 27.9222 18.7771 28.3925 18.7571 28.8261L34.2123 28.8861L34.189 34.4325L19.6009 34.3758C20.2713 36.1168 21.4819 37.7744 22.9561 38.9083C25.0539 40.4992 27.5887 41.3097 30.6303 41.3197C34.856 41.3363 37.9544 39.7855 39.8988 36.6804L44.6515 39.4119C41.4864 44.2313 36.7804 46.6293 30.4869 46.6059C25.3941 46.5859 21.2451 44.9717 18.0734 41.7766C14.8683 38.5815 13.2874 34.5426 13.3041 29.6565C13.3241 24.7705 15.1484 20.398 18.5503 17.4731C21.3419 15.0851 24.9272 13.7944 28.6492 13.6543L39.8288 13.6977L39.8054 19.2774L45.3852 19.3008L45.3485 28.9161H45.3652L45.3752 28.9128Z" fill="black"/>
</svg>
