<?xml version="1.0" encoding="UTF-8"?>
<svg xmlns="http://www.w3.org/2000/svg" version="1.1" viewBox="0 0 72 72">
    <g stroke="#0153ff">
      <path d="M17.4,43c-2.5-.9-4.1-2.2-4.3-3.8-.6-4.4,9.6-9.3,22.8-11.1s24.3.4,24.8,4.8-1.5,3.9-4.6,5.7" fill="none" stroke-linecap="round" stroke-linejoin="round" stroke-width="2.7"/>
      <path d="M47.8,18.5c-.4-2.7-1.3-4.5-2.8-5.1-4.2-1.5-11.1,7.5-15.6,19.9-4.4,12.5-4.6,23.8-.5,25.3,1.5.5,3.3-.3,5.3-2.1" fill="none" stroke-linecap="round" stroke-linejoin="round" stroke-width="2.7"/>
      <path d="M27.9,16.4c-1.9-.8-3.5-.9-4.6-.1-3.6,2.5-.5,13.4,7,24.3,7.5,10.9,16.5,17.8,20.2,15.3,3.2-2.2,1.1-11.1-4.7-20.7" fill="none" stroke-linecap="round" stroke-linejoin="round" stroke-width="2.7"/>
      <path d="M5.2,49.5c5.2,11.9,17,20.2,30.8,20.2s31.8-13.3,33.4-30.3" fill="none" stroke-linecap="round" stroke-linejoin="round" stroke-width="2.7"/>
      <path d="M21.1,49H6.3c-1.1,0-2,.9-2,2v14.8" fill="none" stroke-linecap="round" stroke-linejoin="round" stroke-width="2.7"/>
      <path d="M66.7,22.6C61.5,10.7,49.7,2.5,35.9,2.5S4.1,15.7,2.4,32.7" fill="none" stroke-linecap="round" stroke-linejoin="round" stroke-width="2.7"/>
      <path d="M51.4,23h14.8c1.1,0,2-.9,2-2V6.2" fill="none" stroke-linecap="round" stroke-linejoin="round" stroke-width="2.7"/>
    </g>
</svg>