<?xml version="1.0" encoding="utf-8"?>
<!-- Generated by IcoMoon.io -->
<svg version="1.1" xmlns="http://www.w3.org/2000/svg" width="1024" height="1024" viewBox="0 0 1024 1024">
<g>
	<path fill="#00cc68" d="M325.842 593.636v-500.621l139.355-80.464c29.024-16.734 64.672-16.734 93.622 0l130.144 75.103v506.812c0 2.837-1.541 5.462-3.922 6.932l-169.571 101.658c-2.489 1.434-5.636 1.434-8.198 0l-177.331-102.35c-2.489-1.434-4.095-4.169-4.095-7.069z"/>
	<path fill="#00cc68" d="M967.939 302.784v418.443c0 33.44-17.855 64.352-46.779 81.055l-362.351 209.166c-28.953 16.734-64.599 16.734-93.622 0l-362.342-209.176c-28.925-16.696-46.779-47.618-46.779-81.055v-418.432c0-33.44 17.855-64.352 46.779-81.055l94.991-54.794v426.704c0 48.458 26.080 93.622 68.099 117.922l177.341 102.414c21.074 12.119 44.536 18.174 68.099 18.174 24.227 0 48.394-6.476 69.886-19.36l169.571-101.648c40.79-24.402 66.139-69.11 66.139-116.666v-432.929l104.2 60.185c28.915 16.696 46.77 47.618 46.77 81.055z"/>
</g>
</svg>
