<?xml version="1.0" encoding="utf-8"?>
<!-- Generator: Adobe Illustrator 26.3.1, SVG Export Plug-In . SVG Version: 6.00 Build 0)  -->
<svg version="1.1" id="Layer_1" xmlns="http://www.w3.org/2000/svg" xmlns:xlink="http://www.w3.org/1999/xlink" x="0px" y="0px"
	 viewBox="0 0 1920 1745.77" style="enable-background:new 0 0 1920 1745.77;" xml:space="preserve">
<style type="text/css">
	.st0{fill:#00CC68;}
</style>
<g>
	<path class="st0" d="M755.85,962.41V413.41l152.82-88.24c31.83-18.35,70.92-18.35,102.67,0l142.72,82.36v555.79
		c0,3.11-1.69,5.99-4.3,7.6L963.8,1082.4c-2.73,1.57-6.18,1.57-8.99,0L760.34,970.16C757.61,968.59,755.85,965.59,755.85,962.41z"/>
	<path class="st0" d="M1460,643.45v458.88c0,36.67-19.58,70.57-51.3,88.89l-397.37,229.38c-31.75,18.35-70.84,18.35-102.67,0
		L511.3,1191.21c-31.72-18.31-51.3-52.22-51.3-88.89V643.45c0-36.67,19.58-70.57,51.3-88.89l104.17-60.09v467.94
		c0,53.14,28.6,102.67,74.68,129.32l194.48,112.31c23.11,13.29,48.84,19.93,74.68,19.93c26.57,0,53.07-7.1,76.64-21.23
		l185.96-111.47c44.73-26.76,72.53-75.79,72.53-127.94V488.56l114.27,66C1440.42,572.87,1460,606.78,1460,643.45z"/>
</g>
</svg>
